<?xml version="1.0" standalone="no"?>
<!DOCTYPE svg PUBLIC "-//W3C//DTD SVG 20010904//EN"
 "http://www.w3.org/TR/2001/REC-SVG-20010904/DTD/svg10.dtd">
<svg version="1.0" xmlns="http://www.w3.org/2000/svg"
 width="96.000000pt" height="96.000000pt" viewBox="0 0 96.000000 96.000000"
 preserveAspectRatio="xMidYMid meet">
<metadata>
Created by potrace 1.14, written by Peter Selinger 2001-2017
</metadata>
<g transform="translate(0.000000,96.000000) scale(0.100000,-0.100000)"
fill="#000000" stroke="none">
<path d="M562 823 c-208 -35 -322 -113 -367 -251 -30 -91 -6 -215 56 -280 l20
-23 -55 -55 c-56 -55 -67 -79 -44 -102 22 -22 43 -12 101 46 l58 59 57 -20
c43 -14 72 -18 119 -14 198 19 310 186 329 496 4 60 4 121 0 136 l-7 26 -97
-2 c-53 -2 -130 -9 -170 -16z"/>
</g>
</svg>
